# xmcd
#
# Track frame offsets:
# 150
# 12198
# 26403
# 40982
# 54581
# 66419
# 79429
# 92425
# 104441
# 116032
# 127705
# 140152
# 154020
# 167604
# 178488
# 190348
# 204833
# 219167
# 236839
# 247462
# 258796
#
# Disc length: 3632 seconds
#
#
# Revision: 0
# Processed by: cddbd v1.5.2PL0 Copyright (c) Steve Scherf et al.
# Submitted via: Nero 7, 2, 0, 3 MELHORES
#
DISCID=2c0e2e15
DTITLE=TONICO ETINOCO - OS GHRANDES SUSSESO
DYEAR=2011
DGENRE=Country
TTITLE0=OS GHRANDES SUSSESO
TTITLE1=OS GHRANDES SUSSESO
TTITLE2=OS GHRANDES SUSSESO
TTITLE3=OS GHRANDES SUSSESO
TTITLE4=OS GHRANDES SUSSESO
TTITLE5=OS GHRANDES SUSSESO
TTITLE6=OS GHRANDES SUSSESO
TTITLE7=OS GHRANDES SUSSESO
TTITLE8=OS GHRANDES SUSSESO
TTITLE9=OS GHRANDES SUSSESO
TTITLE10=OS GHRANDES SUSSESO
TTITLE11=OS GHRANDES SUSSESO
TTITLE12=OS GHRANDES SUSSESO
TTITLE13=OS GHRANDES SUSSESO
TTITLE14=OS GHRANDES SUSSESO
TTITLE15=OS GHRANDES SUSSESO
TTITLE16=OS GHRANDES SUSSESO
TTITLE17=OS GHRANDES SUSSESO
TTITLE18=OS GHRANDES SUSSESO
TTITLE19=OS GHRANDES SUSSESO
TTITLE20=OS GHRANDES SUSSESO
EXTD=
EXTT0=MELHORES
EXTT1=MELHORES
EXTT2=MELHORES
EXTT3=MELHORES
EXTT4=MELHORES
EXTT5=MELHORES
EXTT6=MELHORES
EXTT7=MELHORES
EXTT8=MELHORES
EXTT9=MELHORES
EXTT10=MELHORES
EXTT11=MELHORES
EXTT12=MELHORES
EXTT13=MELHORES
EXTT14=MELHORES
EXTT15=MELHORES
EXTT16=MELHORES
EXTT17=MELHORES
EXTT18=MELHORES
EXTT19=MELHORES
EXTT20=MELHORES
PLAYORDER=
